<svg width="42" height="42" viewBox="0 0 42 42" fill="none" xmlns="http://www.w3.org/2000/svg">
<rect width="42" height="42" rx="9" fill="#F4F9EC"/>
<path d="M31 21C31 22.3133 30.7414 23.6137 30.2388 24.827C29.7362 26.0404 28.9996 27.1428 28.0709 28.0714C27.1423 29.0001 26.0399 29.7367 24.8265 30.2393C23.6132 30.7418 22.3128 31.0005 20.9995 31.0005C19.6862 31.0005 18.3858 30.7418 17.1725 30.2393C15.9592 29.7367 14.8567 29.0001 13.9281 28.0714C12.9995 27.1428 12.2628 26.0404 11.7603 24.827C11.2577 23.6137 10.999 22.3133 10.999 21C10.999 18.3477 12.0526 15.804 13.9281 13.9286C15.8036 12.0531 18.3472 10.9995 20.9995 10.9995C23.6518 10.9995 26.1955 12.0531 28.0709 13.9286C29.9464 15.804 31 18.3477 31 21Z" stroke="#8CC63F" stroke-width="1.5"/>
<path d="M25.0001 21C25.0001 22.313 24.8961 23.614 24.6951 24.827C24.4951 26.04 24.2001 27.142 23.8281 28.071C23.4571 29 23.0161 29.736 22.5311 30.239C22.0451 30.741 21.5251 31 21.0001 31C20.4751 31 19.9551 30.741 19.4701 30.239C18.9841 29.736 18.5431 28.999 18.1721 28.071C17.8001 27.142 17.5051 26.041 17.3041 24.827C17.099 23.5617 16.9973 22.2818 17.0001 21C17.0001 19.687 17.1031 18.386 17.3041 17.173C17.5051 15.96 17.8001 14.858 18.1721 13.929C18.5431 13 18.9841 12.264 19.4691 11.761C19.9551 11.26 20.4751 11 21.0001 11C21.5251 11 22.0451 11.259 22.5301 11.761C23.0161 12.264 23.4571 13.001 23.8281 13.929C24.2001 14.858 24.4951 15.959 24.6951 17.173C24.8971 18.386 25.0001 19.687 25.0001 21Z" stroke="#8CC63F" stroke-width="1.5"/>
<path d="M11 21H31" stroke="#8CC63F" stroke-width="1.5" stroke-linecap="round"/>
</svg>
