<svg width="45" height="45" viewBox="0 0 45 45" fill="none" xmlns="http://www.w3.org/2000/svg">
<rect width="44.095" height="44.095" rx="8.47982" fill="#E6E6E6"/>
<path d="M32.4019 28.6951L29.0865 12.9324C29.0436 12.7262 28.9604 12.5306 28.8417 12.3567C28.723 12.1828 28.5711 12.0341 28.3948 11.9191C28.2184 11.8041 28.0211 11.7251 27.8141 11.6866C27.6071 11.6481 27.3945 11.6508 27.1886 11.6947L22.5127 12.6996C22.0991 12.7902 21.738 13.0404 21.5079 13.3958C21.2778 13.7512 21.1974 14.1831 21.284 14.5975L24.5994 30.3603C24.6733 30.7199 24.8687 31.0432 25.1529 31.2757C25.437 31.5081 25.7926 31.6357 26.1597 31.6369C26.2732 31.6367 26.3864 31.6247 26.4973 31.601L31.1732 30.5961C31.5873 30.5053 31.9488 30.2546 32.1789 29.8985C32.409 29.5425 32.4892 29.11 32.4019 28.6951ZM22.8473 14.2709V14.2619L27.5222 13.263L27.8549 14.8483L23.18 15.8542L22.8473 14.2709ZM23.8462 19.0037L23.5116 17.4155L28.1885 16.4106L28.5221 17.9988L23.8462 19.0037ZM30.8386 29.0338L26.1637 30.0327L25.8311 28.4474L30.506 27.4415L30.8386 29.0248V29.0338ZM19.6508 12.4579H14.8561C14.4322 12.4579 14.0257 12.6263 13.7259 12.926C13.4262 13.2257 13.2578 13.6323 13.2578 14.0561L13.2578 30.0387C13.2578 30.4625 13.4262 30.8691 13.7259 31.1688C14.0257 31.4685 14.4322 31.6369 14.8561 31.6369H19.6508C20.0747 31.6369 20.4812 31.4685 20.781 31.1688C21.0807 30.8691 21.2491 30.4625 21.2491 30.0387L21.2491 14.0561C21.2491 13.6323 21.0807 13.2257 20.781 12.926C20.4812 12.6263 20.0747 12.4579 19.6508 12.4579ZM14.8561 14.0561H19.6508V15.6544H14.8561V14.0561ZM19.6508 30.0387H14.8561L14.8561 28.4404H19.6508V30.0387Z" fill="#A3A3A3"/>
</svg>
